<svg width="26" height="26" viewBox="0 0 26 26" fill="none" xmlns="http://www.w3.org/2000/svg">
<path fill-rule="evenodd" clip-rule="evenodd" d="M11.9167 4.38071C7.97522 4.38071 4.52579 7.62251 4.52579 11.9167C4.52579 16.2109 7.97522 19.4527 11.9167 19.4527C15.8581 19.4527 19.3076 16.2109 19.3076 11.9167C19.3076 7.62251 15.8581 4.38071 11.9167 4.38071ZM1.97424 11.9167C1.97424 6.63792 6.28522 2.11932 11.9167 2.11932C17.5481 2.11932 21.8591 6.63792 21.8591 11.9167C21.8591 17.1954 17.5481 21.714 11.9167 21.714C6.28522 21.714 1.97424 17.1954 1.97424 11.9167Z" fill="black" fill-opacity="0.83"/>
<path fill-rule="evenodd" clip-rule="evenodd" d="M17.1913 17.1913C17.7186 16.7771 18.5249 16.8202 18.9923 17.2875L23.7048 22C24.1721 22.4674 24.1235 23.182 23.5962 23.5962C23.0689 24.0104 22.2626 23.9673 21.7952 23.5L17.0827 18.7875C16.6154 18.3201 16.664 17.6055 17.1913 17.1913Z" fill="black" fill-opacity="0.83"/>
</svg>
