<svg width="31" height="28" viewBox="0 0 31 28" fill="none" xmlns="http://www.w3.org/2000/svg">
<g clip-path="url(#clip0_1_285)">
<path fill-rule="evenodd" clip-rule="evenodd" d="M15.5 2.43728C12.8604 2.43728 10.3023 3.3835 8.39664 5.10475C6.48726 6.82935 5.39612 9.18823 5.39612 11.6667C5.39612 15.2756 7.99334 18.7692 10.8316 21.4752C12.2262 22.8047 13.625 23.8931 14.6761 24.6491C14.9847 24.8711 15.2624 25.0637 15.5 25.2247C15.7376 25.0637 16.0153 24.8711 16.3239 24.6491C17.375 23.8931 18.7738 22.8047 20.1684 21.4752C23.0067 18.7692 25.6039 15.2756 25.6039 11.6667C25.6039 9.18823 24.5127 6.82935 22.6034 5.10475C20.6977 3.3835 18.1396 2.43728 15.5 2.43728ZM15.5 26.8333C14.6105 27.8641 14.6101 27.8638 14.6097 27.8636L14.6057 27.8612L14.5967 27.8557L14.5662 27.8371C14.5405 27.8213 14.5041 27.7988 14.4576 27.7697C14.3647 27.7116 14.2317 27.6273 14.0643 27.518C13.7295 27.2997 13.2564 26.9815 12.6911 26.5748C11.5625 25.7631 10.0551 24.5911 8.54339 23.1498C5.56916 20.3142 2.35388 16.2244 2.35388 11.6667C2.35388 8.57556 3.71228 5.59301 6.16313 3.37934C8.61767 1.16233 11.9734 -0.103943 15.5 -0.103943C19.0266 -0.103943 22.3823 1.16233 24.8369 3.37934C27.2877 5.59301 28.6461 8.57556 28.6461 11.6667C28.6461 16.2244 25.4308 20.3142 22.4566 23.1498C20.9449 24.5911 19.4375 25.7631 18.3089 26.5748C17.7436 26.9815 17.2705 27.2997 16.9357 27.518C16.7683 27.6273 16.6353 27.7116 16.5424 27.7697C16.4959 27.7988 16.4595 27.8213 16.4338 27.8371L16.4033 27.8557L16.3943 27.8612L16.3914 27.8629C16.3909 27.8632 16.3895 27.8641 15.5 26.8333ZM15.5 26.8333L16.3895 27.8641C15.8583 28.1839 15.1409 28.1834 14.6097 27.8636L15.5 26.8333Z" fill="black" fill-opacity="0.78"/>
<path fill-rule="evenodd" clip-rule="evenodd" d="M15.5 9.43728C14.3098 9.43728 13.1461 10.3401 13.1461 11.6667C13.1461 12.9933 14.3098 13.8961 15.5 13.8961C16.6902 13.8961 17.8539 12.9933 17.8539 11.6667C17.8539 10.3401 16.6902 9.43728 15.5 9.43728ZM10.1039 11.6667C10.1039 9.12727 12.41 6.89606 15.5 6.89606C18.59 6.89606 20.8961 9.12727 20.8961 11.6667C20.8961 14.2061 18.59 16.4373 15.5 16.4373C12.41 16.4373 10.1039 14.2061 10.1039 11.6667Z" fill="black" fill-opacity="0.78"/>
</g>
<defs>
<clipPath id="clip0_1_285">
<rect width="31" height="28" fill="white"/>
</clipPath>
</defs>
</svg>
