<svg width="148" height="15" viewBox="0 0 148 15" fill="none" xmlns="http://www.w3.org/2000/svg">
<path d="M8.34421 1.76715L5.41378 7.95456V11.259H3.67539V7.95456L0.732544 1.76715H2.69444L4.55701 6.10514L6.40715 1.76715H8.34421Z" fill="black"/>
<path d="M12.4014 11.3814C11.7392 11.3814 11.1431 11.2228 10.6133 10.9055C10.0835 10.5791 9.6655 10.1213 9.35921 9.53201C9.0612 8.94273 8.9122 8.2628 8.9122 7.4922C8.9122 6.72161 9.06534 6.04168 9.37163 5.4524C9.6862 4.86312 10.1125 4.40983 10.6506 4.09253C11.1887 3.76616 11.7888 3.60297 12.4511 3.60297C13.1133 3.60297 13.7135 3.76616 14.2515 4.09253C14.7896 4.40983 15.2118 4.86312 15.5181 5.4524C15.8327 6.04168 15.9899 6.72161 15.9899 7.4922C15.9899 8.2628 15.8285 8.94273 15.5057 9.53201C15.1911 10.1213 14.7606 10.5791 14.2143 10.9055C13.6762 11.2228 13.0719 11.3814 12.4014 11.3814ZM12.4014 9.72239C12.716 9.72239 13.0098 9.6408 13.283 9.47762C13.5645 9.30537 13.788 9.05152 13.9535 8.71609C14.1191 8.38065 14.2019 7.97269 14.2019 7.4922C14.2019 6.77601 14.028 6.22752 13.6804 5.84676C13.341 5.45693 12.9229 5.26202 12.4262 5.26202C11.9295 5.26202 11.5115 5.45693 11.1721 5.84676C10.841 6.22752 10.6754 6.77601 10.6754 7.4922C10.6754 8.2084 10.8368 8.76142 11.1597 9.15125C11.4908 9.53201 11.9047 9.72239 12.4014 9.72239Z" fill="black"/>
<path d="M23.7592 3.72536V11.259H22.0084V10.3071C21.7849 10.6335 21.4911 10.8919 21.1268 11.0823C20.7709 11.2636 20.3818 11.3542 19.9596 11.3542C19.4215 11.3542 18.9456 11.2319 18.5317 10.9871C18.1178 10.7332 17.7908 10.3661 17.5507 9.88558C17.3189 9.39603 17.203 8.81581 17.203 8.14494V3.72536H18.9414V7.87297C18.9414 8.47131 19.078 8.93367 19.3512 9.26004C19.6244 9.57734 19.9969 9.73599 20.4687 9.73599C20.9488 9.73599 21.3255 9.57734 21.5987 9.26004C21.8718 8.93367 22.0084 8.47131 22.0084 7.87297V3.72536H23.7592Z" fill="black"/>
<path d="M36.9762 3.61657C37.8205 3.61657 38.4993 3.90214 39.0126 4.47329C39.5341 5.03537 39.7948 5.8241 39.7948 6.83947V11.259H38.0564V7.09784C38.0564 6.50856 37.9199 6.05981 37.6467 5.75157C37.3735 5.43427 37.001 5.27561 36.5291 5.27561C36.0573 5.27561 35.6806 5.43427 35.3992 5.75157C35.126 6.05981 34.9894 6.50856 34.9894 7.09784V11.259H33.251V7.09784C33.251 6.50856 33.1145 6.05981 32.8413 5.75157C32.5681 5.43427 32.1956 5.27561 31.7237 5.27561C31.2436 5.27561 30.8628 5.43427 30.5814 5.75157C30.3082 6.05981 30.1716 6.50856 30.1716 7.09784V11.259H28.4332V3.72536H30.1716V4.63647C30.3951 4.31917 30.6807 4.06986 31.0284 3.88854C31.3843 3.70723 31.7734 3.61657 32.1956 3.61657C32.7337 3.61657 33.2138 3.74349 33.636 3.99733C34.0581 4.24211 34.3851 4.59568 34.6169 5.05803C34.8404 4.62288 35.1633 4.27384 35.5854 4.01093C36.0159 3.74802 36.4795 3.61657 36.9762 3.61657Z" fill="black"/>
<path d="M40.9975 7.46501C40.9975 6.70348 41.134 6.02808 41.4072 5.4388C41.6887 4.84952 42.0653 4.39623 42.5372 4.07893C43.0173 3.76162 43.5512 3.60297 44.139 3.60297C44.6522 3.60297 45.0992 3.7163 45.48 3.94294C45.8691 4.16959 46.1795 4.45516 46.4113 4.79966V3.72536H48.1621V11.259H46.4113V10.1576C46.1878 10.5111 45.8774 10.8058 45.48 11.0415C45.091 11.2681 44.6398 11.3814 44.1266 11.3814C43.5471 11.3814 43.0173 11.2183 42.5372 10.8919C42.0653 10.5655 41.6887 10.1077 41.4072 9.51841C41.134 8.92007 40.9975 8.2356 40.9975 7.46501ZM46.4113 7.4922C46.4113 7.02985 46.3285 6.63549 46.163 6.30912C45.9974 5.97368 45.7739 5.71984 45.4924 5.54759C45.211 5.36627 44.9088 5.27561 44.586 5.27561C44.2631 5.27561 43.9651 5.36174 43.692 5.53399C43.4188 5.70624 43.1953 5.96008 43.0214 6.29552C42.8559 6.62189 42.7731 7.01172 42.7731 7.46501C42.7731 7.9183 42.8559 8.31719 43.0214 8.66169C43.1953 8.99713 43.4188 9.2555 43.692 9.43682C43.9734 9.61814 44.2714 9.7088 44.586 9.7088C44.9088 9.7088 45.211 9.62267 45.4924 9.45042C45.7739 9.2691 45.9974 9.01526 46.163 8.68889C46.3285 8.35346 46.4113 7.95456 46.4113 7.4922Z" fill="black"/>
<path d="M56.441 3.72536L52.1819 14.8219H50.3318L51.8218 11.0687L49.0653 3.72536H51.0147L52.7904 8.98806L54.5909 3.72536H56.441Z" fill="black"/>
<path d="M65.034 4.82686C65.2575 4.46422 65.5638 4.16959 65.9529 3.94294C66.3502 3.7163 66.8014 3.60297 67.3063 3.60297C67.8941 3.60297 68.4239 3.76162 68.8957 4.07893C69.3758 4.39623 69.7525 4.84952 70.0257 5.4388C70.3071 6.01901 70.4479 6.69441 70.4479 7.46501C70.4479 8.2356 70.3071 8.92007 70.0257 9.51841C69.7525 10.1077 69.3758 10.5655 68.8957 10.8919C68.4239 11.2183 67.8941 11.3814 67.3063 11.3814C66.7931 11.3814 66.3419 11.2726 65.9529 11.0551C65.5721 10.8284 65.2658 10.5383 65.034 10.1848V11.259H63.2956V1.196H65.034V4.82686ZM68.6722 7.46501C68.6722 7.01172 68.5853 6.62189 68.4115 6.29552C68.2459 5.96008 68.0224 5.70624 67.7409 5.53399C67.4678 5.36174 67.1698 5.27561 66.8469 5.27561C66.5323 5.27561 66.2343 5.36627 65.9529 5.54759C65.6797 5.71984 65.4562 5.97368 65.2824 6.30912C65.1168 6.64455 65.034 7.03891 65.034 7.4922C65.034 7.94549 65.1168 8.33986 65.2824 8.67529C65.4562 9.01073 65.6797 9.2691 65.9529 9.45042C66.2343 9.62267 66.5323 9.7088 66.8469 9.7088C67.1698 9.7088 67.4678 9.61814 67.7409 9.43682C68.0224 9.2555 68.2459 8.99713 68.4115 8.66169C68.5853 8.32626 68.6722 7.92736 68.6722 7.46501Z" fill="black"/>
<path d="M78.1059 7.32902C78.1059 7.60099 78.0893 7.84577 78.0562 8.06335H73.0273C73.0687 8.6073 73.2425 9.03339 73.5488 9.34163C73.8551 9.64987 74.2318 9.80399 74.6788 9.80399C75.3245 9.80399 75.7839 9.50028 76.0571 8.89287H77.9321C77.7334 9.61814 77.3526 10.2165 76.7897 10.6879C76.2268 11.1503 75.5356 11.3814 74.716 11.3814C74.0538 11.3814 73.4578 11.2228 72.928 10.9055C72.4065 10.5791 71.9967 10.1213 71.6987 9.53201C71.409 8.94273 71.2641 8.2628 71.2641 7.4922C71.2641 6.71254 71.409 6.02808 71.6987 5.4388C71.9884 4.84952 72.394 4.39623 72.9156 4.07893C73.4371 3.76162 74.0372 3.60297 74.716 3.60297C75.37 3.60297 75.9536 3.75709 76.4668 4.06533C76.9884 4.37357 77.3898 4.81326 77.6713 5.3844C77.961 5.94648 78.1059 6.59469 78.1059 7.32902ZM76.3054 6.78507C76.2971 6.29552 76.1357 5.90569 75.8212 5.61558C75.5066 5.31641 75.1217 5.16682 74.6664 5.16682C74.2359 5.16682 73.8717 5.31188 73.5737 5.60198C73.2839 5.88302 73.106 6.27739 73.0397 6.78507H76.3054Z" fill="black"/>
<path d="M84.0719 1.196V11.259H82.3335V1.196H84.0719Z" fill="black"/>
<path d="M88.8441 11.3814C88.1818 11.3814 87.5858 11.2228 87.056 10.9055C86.5262 10.5791 86.1082 10.1213 85.8019 9.53201C85.5039 8.94273 85.3548 8.2628 85.3548 7.4922C85.3548 6.72161 85.508 6.04168 85.8143 5.4524C86.1288 4.86312 86.5552 4.40983 87.0932 4.09253C87.6313 3.76616 88.2315 3.60297 88.8937 3.60297C89.556 3.60297 90.1561 3.76616 90.6942 4.09253C91.2323 4.40983 91.6545 4.86312 91.9607 5.4524C92.2753 6.04168 92.4326 6.72161 92.4326 7.4922C92.4326 8.2628 92.2712 8.94273 91.9483 9.53201C91.6338 10.1213 91.2033 10.5791 90.6569 10.9055C90.1189 11.2228 89.5146 11.3814 88.8441 11.3814ZM88.8441 9.72239C89.1586 9.72239 89.4525 9.6408 89.7257 9.47762C90.0071 9.30537 90.2306 9.05152 90.3962 8.71609C90.5617 8.38065 90.6445 7.97269 90.6445 7.4922C90.6445 6.77601 90.4707 6.22752 90.123 5.84676C89.7836 5.45693 89.3656 5.26202 88.8689 5.26202C88.3722 5.26202 87.9542 5.45693 87.6148 5.84676C87.2836 6.22752 87.1181 6.77601 87.1181 7.4922C87.1181 8.2084 87.2795 8.76142 87.6023 9.15125C87.9335 9.53201 88.3474 9.72239 88.8441 9.72239Z" fill="black"/>
<path d="M96.7624 11.3814C96.1001 11.3814 95.5041 11.2228 94.9743 10.9055C94.4445 10.5791 94.0265 10.1213 93.7202 9.53201C93.4222 8.94273 93.2732 8.2628 93.2732 7.4922C93.2732 6.72161 93.4263 6.04168 93.7326 5.4524C94.0472 4.86312 94.4735 4.40983 95.0116 4.09253C95.5496 3.76616 96.1498 3.60297 96.812 3.60297C97.4743 3.60297 98.0744 3.76616 98.6125 4.09253C99.1506 4.40983 99.5728 4.86312 99.8791 5.4524C100.194 6.04168 100.351 6.72161 100.351 7.4922C100.351 8.2628 100.189 8.94273 99.8666 9.53201C99.5521 10.1213 99.1216 10.5791 98.5753 10.9055C98.0372 11.2228 97.4329 11.3814 96.7624 11.3814ZM96.7624 9.72239C97.0769 9.72239 97.3708 9.6408 97.644 9.47762C97.9254 9.30537 98.1489 9.05152 98.3145 8.71609C98.4801 8.38065 98.5628 7.97269 98.5628 7.4922C98.5628 6.77601 98.389 6.22752 98.0413 5.84676C97.7019 5.45693 97.2839 5.26202 96.7872 5.26202C96.2905 5.26202 95.8725 5.45693 95.5331 5.84676C95.202 6.22752 95.0364 6.77601 95.0364 7.4922C95.0364 8.2084 95.1978 8.76142 95.5207 9.15125C95.8518 9.53201 96.2657 9.72239 96.7624 9.72239Z" fill="black"/>
<path d="M105.699 11.259L103.364 8.04975V11.259H101.626V1.196H103.364V6.92106L105.674 3.72536H107.934L104.904 7.5058L107.959 11.259H105.699Z" fill="black"/>
<path d="M109.759 2.82785C109.453 2.82785 109.196 2.72359 108.989 2.51508C108.791 2.2975 108.691 2.03005 108.691 1.71275C108.691 1.39545 108.791 1.13254 108.989 0.924025C109.196 0.706446 109.453 0.597656 109.759 0.597656C110.065 0.597656 110.318 0.706446 110.517 0.924025C110.723 1.13254 110.827 1.39545 110.827 1.71275C110.827 2.03005 110.723 2.2975 110.517 2.51508C110.318 2.72359 110.065 2.82785 109.759 2.82785ZM110.616 3.72536V11.259H108.877V3.72536H110.616Z" fill="black"/>
<path d="M116.145 3.61657C116.965 3.61657 117.627 3.90214 118.132 4.47329C118.637 5.03537 118.89 5.8241 118.89 6.83947V11.259H117.151V7.09784C117.151 6.4995 117.015 6.04168 116.741 5.72437C116.468 5.398 116.096 5.23482 115.624 5.23482C115.144 5.23482 114.763 5.398 114.482 5.72437C114.208 6.04168 114.072 6.4995 114.072 7.09784V11.259H112.333V3.72536H114.072V4.66367C114.304 4.3373 114.597 4.08346 114.953 3.90214C115.318 3.71176 115.715 3.61657 116.145 3.61657Z" fill="black"/>
<path d="M123.237 3.60297C123.75 3.60297 124.202 3.7163 124.591 3.94294C124.98 4.16052 125.286 4.44609 125.51 4.79966V3.72536H127.26V11.3134C127.26 12.0115 127.132 12.6325 126.875 13.1765C126.619 13.7295 126.234 14.1646 125.721 14.4819C125.207 14.8083 124.587 14.9715 123.858 14.9715C122.881 14.9715 122.078 14.7222 121.449 14.2236C120.828 13.7249 120.477 13.045 120.394 12.1838H122.12C122.211 12.5283 122.405 12.8002 122.703 12.9997C123.01 13.2082 123.378 13.3125 123.808 13.3125C124.313 13.3125 124.723 13.1447 125.038 12.8093C125.352 12.4829 125.51 11.9843 125.51 11.3134V10.144C125.286 10.4975 124.976 10.7922 124.578 11.0279C124.189 11.2636 123.742 11.3814 123.237 11.3814C122.658 11.3814 122.128 11.2183 121.648 10.8919C121.168 10.5655 120.787 10.1077 120.505 9.51841C120.232 8.92007 120.096 8.2356 120.096 7.46501C120.096 6.70348 120.232 6.02808 120.505 5.4388C120.787 4.84952 121.164 4.39623 121.635 4.07893C122.116 3.76162 122.649 3.60297 123.237 3.60297ZM125.51 7.4922C125.51 7.02985 125.427 6.63549 125.261 6.30912C125.096 5.97368 124.872 5.71984 124.591 5.54759C124.309 5.36627 124.007 5.27561 123.684 5.27561C123.361 5.27561 123.063 5.36174 122.79 5.53399C122.517 5.70624 122.294 5.96008 122.12 6.29552C121.954 6.62189 121.871 7.01172 121.871 7.46501C121.871 7.9183 121.954 8.31719 122.12 8.66169C122.294 8.99713 122.517 9.2555 122.79 9.43682C123.072 9.61814 123.37 9.7088 123.684 9.7088C124.007 9.7088 124.309 9.62267 124.591 9.45042C124.872 9.2691 125.096 9.01526 125.261 8.68889C125.427 8.35346 125.51 7.95456 125.51 7.4922Z" fill="black"/>
<path d="M135.071 5.28921H133.866V11.259H132.103V5.28921H131.321V3.72536H132.103V3.3446C132.103 2.41988 132.343 1.73995 132.823 1.30479C133.304 0.869631 134.028 0.66565 134.996 0.692848V2.2975C134.574 2.28843 134.28 2.36549 134.115 2.52867C133.949 2.69186 133.866 2.9865 133.866 3.41259V3.72536H135.071V5.28921Z" fill="black"/>
<path d="M139.252 11.3814C138.59 11.3814 137.994 11.2228 137.464 10.9055C136.934 10.5791 136.516 10.1213 136.21 9.53201C135.912 8.94273 135.763 8.2628 135.763 7.4922C135.763 6.72161 135.916 6.04168 136.222 5.4524C136.537 4.86312 136.963 4.40983 137.501 4.09253C138.039 3.76616 138.639 3.60297 139.302 3.60297C139.964 3.60297 140.564 3.76616 141.102 4.09253C141.64 4.40983 142.062 4.86312 142.369 5.4524C142.683 6.04168 142.841 6.72161 142.841 7.4922C142.841 8.2628 142.679 8.94273 142.356 9.53201C142.042 10.1213 141.611 10.5791 141.065 10.9055C140.527 11.2228 139.923 11.3814 139.252 11.3814ZM139.252 9.72239C139.567 9.72239 139.861 9.6408 140.134 9.47762C140.415 9.30537 140.639 9.05152 140.804 8.71609C140.97 8.38065 141.053 7.97269 141.053 7.4922C141.053 6.77601 140.879 6.22752 140.531 5.84676C140.192 5.45693 139.774 5.26202 139.277 5.26202C138.78 5.26202 138.362 5.45693 138.023 5.84676C137.692 6.22752 137.526 6.77601 137.526 7.4922C137.526 8.2084 137.688 8.76142 138.01 9.15125C138.341 9.53201 138.755 9.72239 139.252 9.72239Z" fill="black"/>
<path d="M145.854 4.89485C146.078 4.49595 146.367 4.18318 146.723 3.95654C147.088 3.72989 147.502 3.61657 147.965 3.61657V5.61558H147.506C146.959 5.61558 146.545 5.7561 146.264 6.03714C145.991 6.31818 145.854 6.80774 145.854 7.5058V11.259H144.116V3.72536H145.854V4.89485Z" fill="black"/>
</svg>
